<svg width="15" height="15" viewBox="0 0 18 18" fill="none" xmlns="http://www.w3.org/2000/svg">
<path d="M1 9C1 12.7712 1 14.6569 2.17157 15.8284C3.34315 17 5.22876 17 9 17C12.7712 17 14.6569 17 15.8284 15.8284C17 14.6569 17 12.7712 17 9V7.8M10.2 1H9C5.22876 1 3.34315 1 2.17157 2.17157C1.39258 2.95056 1.13155 4.04524 1.04408 5.8M12.7217 2.16405L13.2407 1.645C14.1007 0.785 15.4951 0.785 16.3551 1.645C17.215 2.50499 17.215 3.89932 16.3551 4.75931L15.836 5.27836M12.7217 2.16405C12.7217 2.16405 12.7866 3.26703 13.7598 4.24026C14.733 5.21348 15.836 5.27836 15.836 5.27836M12.7217 2.16405L7.94979 6.93594C7.62658 7.25915 7.46497 7.42076 7.32599 7.59895C7.16204 7.80914 7.02148 8.03657 6.9068 8.27721C6.80958 8.48121 6.73731 8.69803 6.59276 9.13166L6.12998 10.52M15.836 5.27836L13.4501 7.66431M6.12998 10.52L5.83054 11.4183C5.75941 11.6317 5.81495 11.867 5.974 12.026C6.13306 12.1851 6.36833 12.2406 6.58172 12.1695L7.48005 11.8701M6.12998 10.52L7.48005 11.8701M11.0641 10.0503C10.7409 10.3735 10.5793 10.5351 10.4011 10.6741C10.1909 10.838 9.96348 10.9786 9.72284 11.0932C9.51884 11.1905 9.30202 11.2627 8.86839 11.4073L7.48005 11.8701" stroke="#1C274C" stroke-width="1.5" stroke-linecap="round"/>
</svg>
