<svg width="15" height="15" viewBox="0 0 15 15" fill="none" xmlns="http://www.w3.org/2000/svg">
<path d="M13.2775 3.16602H1" stroke="#333333" stroke-width="1.5" stroke-linecap="round"/>
<path d="M5.33337 6.77734L5.69448 10.3884" stroke="#333333" stroke-width="1.5" stroke-linecap="round"/>
<path d="M8.94435 6.77734L8.58325 10.3884" stroke="#333333" stroke-width="1.5" stroke-linecap="round"/>
<path d="M3.1665 3.16661C3.20686 3.16661 3.22704 3.16661 3.24533 3.16614C3.84003 3.15107 4.36466 2.77294 4.56701 2.21353C4.57324 2.19632 4.57962 2.17718 4.59238 2.1389L4.6625 1.92855C4.72235 1.74898 4.75228 1.65919 4.79198 1.58296C4.95035 1.27882 5.24337 1.06762 5.58199 1.01355C5.66686 1 5.7615 1 5.95078 1H8.32645C8.51573 1 8.61037 1 8.69525 1.01355C9.03386 1.06762 9.32689 1.27882 9.48526 1.58296C9.52496 1.65919 9.55489 1.74898 9.61474 1.92855L9.68486 2.1389C9.6976 2.17713 9.70401 2.19634 9.71023 2.21353C9.91258 2.77294 10.4372 3.15107 11.0319 3.16614C11.0502 3.16661 11.0704 3.16661 11.1107 3.16661" stroke="#333333" stroke-width="1.5"/>
<path d="M11.7423 9.95521C11.6145 11.8726 11.5506 12.8313 10.9259 13.4157C10.3012 14.0002 9.34036 14.0002 7.41872 14.0002H6.8602C4.93856 14.0002 3.97774 14.0002 3.35303 13.4157C2.72832 12.8313 2.6644 11.8726 2.53658 9.95521L2.20441 4.97266M12.0745 4.97266L11.9301 7.13926" stroke="#333333" stroke-width="1.5" stroke-linecap="round"/>
</svg>
